<svg xmlns="http://www.w3.org/2000/svg" version="1.1" xmlns:xlink="http://www.w3.org/1999/xlink" width="200" height="200"><svg xmlns="http://www.w3.org/2000/svg" version="1.1" xmlns:xlink="http://www.w3.org/1999/xlink" width="200" height="200"><svg xmlns="http://www.w3.org/2000/svg" version="1.1" xmlns:xlink="http://www.w3.org/1999/xlink" viewBox="0 0 200 200"><rect width="200" height="200" fill="url('#gradient')"></rect><defs><linearGradient id="gradient" gradientTransform="rotate(45 0.5 0.5)"><stop offset="0%" stop-color="#243c42"></stop><stop offset="100%" stop-color="#223447"></stop></linearGradient></defs><g><g fill="#fcfaf8" transform="matrix(2.8863138114625744,0,0,2.8863138114625744,6.901089544733821,120.51163466642018)" stroke="#f7e9ad" stroke-width="0"><path d="M5.75 0L1.07 0L1.07-14.22L5.65-14.22Q7.54-14.22 9.04-13.36Q10.55-12.51 11.39-10.95Q12.24-9.39 12.25-7.46L12.25-7.46L12.25-6.81Q12.25-4.85 11.42-3.31Q10.60-1.76 9.10-0.88Q7.60-0.01 5.75 0L5.75 0ZM5.65-11.57L4.50-11.57L4.50-2.64L5.69-2.64Q7.17-2.64 7.96-3.69Q8.75-4.74 8.75-6.81L8.75-6.81L8.75-7.42Q8.75-9.48 7.96-10.53Q7.17-11.57 5.65-11.57L5.65-11.57ZM19.62-4.82L17.43-4.82L17.43 0L14.00 0L14.00-14.22L19.68-14.22Q21.31-14.22 22.56-13.62Q23.82-13.02 24.51-11.91Q25.20-10.80 25.20-9.39L25.20-9.39Q25.20-7.31 23.71-6.07Q22.22-4.82 19.62-4.82L19.62-4.82ZM17.43-11.57L17.43-7.47L19.68-7.47Q20.67-7.47 21.20-7.97Q21.72-8.47 21.72-9.38L21.72-9.38Q21.72-10.37 21.18-10.97Q20.64-11.56 19.72-11.57L19.72-11.57L17.43-11.57ZM38.18-14.22L38.18-11.57L33.92-11.57L33.92 0L30.49 0L30.49-11.57L26.30-11.57L26.30-14.22L38.18-14.22ZM47.42 0L44.91-5.02L43.06-5.02L43.06 0L39.63 0L39.63-14.22L45.22-14.22Q47.75-14.22 49.18-13.10Q50.61-11.97 50.61-9.92L50.61-9.92Q50.61-8.44 50.00-7.46Q49.40-6.48 48.13-5.88L48.13-5.88L51.09-0.15L51.09 0L47.42 0ZM43.06-11.57L43.06-7.67L45.22-7.67Q46.20-7.67 46.69-8.18Q47.19-8.69 47.19-9.61Q47.19-10.53 46.69-11.05Q46.19-11.57 45.22-11.57L45.22-11.57L43.06-11.57ZM60.01-3.78L60.01-3.78Q60.01-4.53 59.48-4.95Q58.95-5.37 57.61-5.82Q56.27-6.27 55.42-6.69L55.42-6.69Q52.66-8.05 52.66-10.42L52.66-10.42Q52.66-11.60 53.34-12.50Q54.03-13.41 55.29-13.91Q56.55-14.41 58.13-14.41L58.13-14.41Q59.66-14.41 60.87-13.87Q62.09-13.32 62.76-12.31Q63.44-11.30 63.44-10L63.44-10L60.02-10Q60.02-10.87 59.49-11.35Q58.96-11.83 58.05-11.83L58.05-11.83Q57.13-11.83 56.60-11.42Q56.06-11.02 56.06-10.39L56.06-10.39Q56.06-9.84 56.65-9.40Q57.24-8.96 58.71-8.48Q60.19-8.01 61.13-7.46L61.13-7.46Q63.44-6.13 63.44-3.80L63.44-3.80Q63.44-1.93 62.03-0.87Q60.63 0.20 58.17 0.20L58.17 0.20Q56.45 0.20 55.04-0.42Q53.64-1.04 52.93-2.12Q52.23-3.20 52.23-4.61L52.23-4.61L55.66-4.61Q55.66-3.47 56.25-2.92Q56.85-2.38 58.17-2.38L58.17-2.38Q59.02-2.38 59.52-2.75Q60.01-3.12 60.01-3.78Z"></path></g></g></svg></svg><style>@media (prefers-color-scheme: light) { :root { filter: none; } }
@media (prefers-color-scheme: dark) { :root { filter: none; } }
</style></svg>